<?xml version="1.0" standalone="no"?>
<!DOCTYPE svg PUBLIC "-//W3C//DTD SVG 1.1//EN" "http://www.w3.org/Graphics/SVG/1.1/DTD/svg11.dtd" >
<svg xmlns="http://www.w3.org/2000/svg">
<metadata>
<json>
<![CDATA[
{
	"fontFamily": "icomoon",
	"description": "Font generated by IcoMoon.",
	"majorVersion": 1,
	"minorVersion": 0,
	"version": "Version 1.0",
	"fontId": "icomoon",
	"psName": "icomoon",
	"subFamily": "Regular",
	"fullName": "icomoon"
}
]]>
</json>
</metadata>
<defs>
<font id="icomoon" horiz-adv-x="1024">
<font-face units-per-em="1024" ascent="877.8572825024438" descent="-146.14271749755622" />
<missing-glyph horiz-adv-x="1024" />
<glyph unicode="&#x20;" horiz-adv-x="256.25024437927664" d="" />
<glyph unicode="&#xe60f;" glyph-name="gerenjianli" data-tags="gerenjianli" d="M769.502 801.539h-734.105v-869.537h734.105v869.537zM707.429-5.926h-609.959v745.391h609.446v-745.391zM154.926 334.195h481.195v-34.372h-481.195zM154.926 248.010h481.195v-34.372h-481.195zM155.44 172.599h481.195v-34.372h-481.195zM155.44 86.415h481.195v-34.372h-481.195zM409.375 666.619h220.59v-34.372h-220.59zM409.375 580.435h220.59v-34.372h-220.59zM413.992 505.023h221.104v-34.372h-221.104zM796.691 697.399v-62.586h20.008v-744.878h-609.446v14.878h-62.586v-77.464h734.618v870.051zM413.992 418.839h221.104v-34.372h-221.104zM367.822 663.541h-224.694v-261.63h224.694v261.63zM325.756 451.671v-1.026c0-14.878-31.806-27.19-71.308-27.19s-71.308 12.312-71.308 27.19v45.144h0.514c2.566 14.364 14.878 26.164 31.806 33.858l20.008 7.696 0.514 8.208c-8.208 6.156-14.364 16.93-16.416 29.754-4.618 0.514-8.208 5.13-8.208 11.286 0 4.618 2.052 8.208 5.13 10.26 0 0-11.8 34.884 12.826 48.222 0 0 48.736 21.546 51.3-6.156 20.008-9.234 10.26-41.040 10.26-41.040 4.104-1.026 7.182-5.644 7.182-10.774 0-6.156-4.104-11.286-8.722-11.286h-0.514c-2.052-11.286-6.67-21.034-13.852-27.702l0.514-9.234 17.956-9.234c17.442-7.696 29.242-19.494 31.806-33.858h0.514v-44.118z" />
<glyph unicode="&#xe613;" glyph-name="cha" data-tags="cha" d="M592.005 338.488l308.005 308.005c21.864 21.864 21.864 57.639 0 79.504s-57.639 21.864-79.504 0l-308.005-308.005-308.007 308.005c-21.864 21.864-57.639 21.864-79.504 0s-21.864-57.639 0-79.504l308.007-308.005-308.007-308.007c-21.864-21.864-21.864-57.639 0-79.504s57.639-21.864 79.504 0l308.006 308.006 308.006-308.006c21.864-21.864 57.639-21.864 79.504 0s21.864 57.639 0 79.504l-308.005 308.007z" />
<glyph unicode="&#xe62d;" glyph-name="sliderleft" data-tags="sliderleft" d="M513.502 824.924c-284.761 0-513.502-228.742-513.502-513.502s228.742-513.502 513.502-513.502 513.502 228.742 513.502 513.502-228.742 513.502-513.502 513.502zM599.865 122.359c14.006-14.006 14.006-35.011 0-49.017s-35.011-14.006-49.017 0l-214.737 214.737c-14.006 14.006-14.006 35.011 0 49.017l214.737 214.737c14.006 14.006 35.011 14.006 49.017 0s14.006-35.011 0-49.017l-191.397-191.397 191.397-189.062z" />
<glyph unicode="&#xe62e;" glyph-name="sliderright" data-tags="sliderright" d="M513.502 824.924c284.761 0 513.502-228.742 513.502-513.502s-228.742-513.502-513.502-513.502-513.502 228.742-513.502 513.502 228.742 513.502 513.502 513.502zM427.141 122.359c-14.006-14.006-14.006-35.011 0-49.017s35.011-14.006 49.017 0l214.737 214.737c14.006 14.006 14.006 35.011 0 49.017l-214.737 214.737c-14.006 14.006-35.011 14.006-49.017 0s-14.006-35.011 0-49.017l191.397-191.397-191.397-189.062z" />
<glyph unicode="&#xe633;" glyph-name="page" data-tags="page" d="M784.598 722.223c75.313 0 136.352-61.074 136.352-136.386v-545.512c0-75.313-61.039-136.352-136.352-136.352h-545.512c-75.3 0-136.347 61.024-136.386 136.314v545.55c0 75.313 61.074 136.386 136.386 136.386h545.512zM683.814 175.342h-342.335c-18.905 0-34.232-15.327-34.232-34.232s15.327-34.232 34.232-34.232h342.335c18.905 0 34.232 15.327 34.232 34.232s-15.327 34.232-34.232 34.232v0zM683.814 346.511h-342.335c-0.069 0.001-0.151 0.001-0.233 0.001-18.905 0-34.232-15.327-34.232-34.232 0-17.59 13.267-32.081 30.341-34.014l0.156-0.014 3.971-0.205h342.335c18.905 0 34.232 15.327 34.232 34.232s-15.327 34.232-34.232 34.232v0zM683.814 517.678h-342.335c-0.069 0.001-0.151 0.001-0.233 0.001-18.905 0-34.232-15.327-34.232-34.232 0-17.59 13.267-32.081 30.341-34.014l0.156-0.014 3.971-0.205h342.335c18.905 0 34.232 15.327 34.232 34.232s-15.327 34.232-34.232 34.232v0z" />
<glyph unicode="&#xe634;" glyph-name="font" data-tags="font" d="M785.42 721.368c75.313 0 136.386-61.039 136.386-136.386v-545.478c0-75.313-61.039-136.386-136.386-136.386h-545.443c-75.324 0-136.386 61.064-136.386 136.386v0 545.443c0 75.313 61.039 136.386 136.386 136.386h545.478zM393.104 54.088c-0.010 0-0.022 0-0.034 0-6.921 0-12.529-5.608-12.529-12.529 0 0 0 0 0 0v0-10.99c0-0.004 0-0.010 0-0.015 0-6.921 5.608-12.529 12.529-12.529 0.216 0 0.431 0.005 0.647 0.016l-0.030-0.001c31.117 1.542 53.165 2.532 66.174 3.013 15.859 0.688 34.898 1.133 54.020 1.23l0.411 0.002c19.547 0 55.973-1.232 109.239-3.664l17.664-0.686c0 0 0 0 0 0 6.909 0 12.509 5.589 12.529 12.493v11.128c0 6.921-5.608 12.529-12.529 12.529v0h-1.747c-15.746 0-28.002 1.505-36.699 4.483-8.115 2.511-14.771 7.716-19.089 14.544l-0.083 0.141c-3.525 7.052-6.094 17.8-7.738 32.178-1.644 14.412-2.429 39.575-2.429 75.452v76.237c0 37.313 0.137 86.37 1.849 263.256 0.115 6.832 5.682 12.324 12.527 12.324 0.001 0 0.001 0 0.002 0h59.395c41.595 0 69.461-5.752 83.599-17.288 8.455-6.95 16.876-25.675 25.265-56.28 1.713-6.162 7.738-10.031 14.037-9.072l13.522 2.122c6.677 1.027 11.297 7.189 10.475 13.9-1.876 12.852-4.157 33.432-6.017 54.133l-0.418 5.777c-1.713 21.908-2.637 43.888-2.637 65.83 0 0.004 0 0.010 0 0.015 0 5.444-4.413 9.86-9.86 9.86-0.79 0-1.558-0.092-2.292-0.267l0.067 0.013c-8.941-2.206-19.638-3.951-30.57-4.877l-0.789-0.054c-19.718-1.471-54.568-2.225-104.583-2.225h-244.599c-44.572 0-76.237 0.754-94.999 2.225-11.216 0.988-21.303 2.536-31.168 4.679l1.627-0.295c-0.761 0.164-1.635 0.257-2.528 0.257-6.612 0-12.030-5.123-12.496-11.616l-0.002-0.040c-1.679-24.989-3.456-44.4-5.374-58.198-4.309-28.506-8.482-50.565-13.302-72.385l1.354 7.305c-1.368-6.745 2.944-13.351 9.687-14.788l14.893-3.149c0.788-0.176 1.693-0.276 2.621-0.276 5.55 0 10.259 3.611 11.905 8.609l0.025 0.088c10.065 31.53 19.82 50.906 29.271 58.095 15.746 11.949 44.983 17.903 87.637 17.903h57.649c6.916 0 12.495-5.579 12.495-12.495v-220.704c0-79.352-0.515-133.716-1.61-163.054-1.095-29.373-3.013-47.859-5.718-55.458-4.108-10.065-10.338-17.049-18.759-20.984s-21.738-5.923-39.951-5.923h-2.569z" />
<glyph unicode="&#xe638;" glyph-name="pdf" data-tags="pdf" d="M871.624 546.802h-212.584v212.585l212.584-212.585zM632.693 520.457v238.932l-477.897 0.054v-418.181h716.828v179.195h-238.931zM295.871 158.827c-5.085 3.073-10.977 5.148-17.661 6.219-6.691 1.067-13.642 1.606-20.87 1.606h-48.965v-85.893h48.966c7.227 0 14.182 0.535 20.87 1.606 6.686 1.068 12.576 3.142 17.66 6.22 5.079 3.072 9.161 7.427 12.244 13.046 3.074 5.617 4.614 12.976 4.614 22.077 0 9.097-1.541 16.456-4.614 22.076-3.083 5.618-7.165 9.97-12.244 13.049zM35.925 281.528v-418.128h955.154v418.128h-955.153zM368.319 89.788c-3.612-11.104-9.37-20.939-17.26-29.5-7.898-8.566-18.132-15.453-30.707-20.67-12.58-5.221-27.828-7.831-45.756-7.831h-66.231v-102.75h-63.015v286.586h129.245c17.926 0 33.173-2.609 45.755-7.826 12.577-5.222 22.811-12.112 30.708-20.675 7.89-8.562 13.643-18.331 17.261-29.299 3.612-10.976 5.416-22.344 5.416-34.117 0-11.51-1.806-22.818-5.417-33.918zM646.793 16.14c-5.358-17.661-13.447-32.914-24.284-45.762-10.84-12.842-24.355-22.945-40.543-30.303-16.194-7.364-35.257-11.040-57.198-11.040h-123.622v286.585h123.622c18.464 0 35.657-2.95 51.578-8.835 15.921-5.887 29.705-14.713 41.34-26.49 11.641-11.778 20.734-26.489 27.298-44.149 6.553-17.661 9.833-38.399 9.833-62.218 0-20.87-2.679-40.137-8.027-57.792zM892.875 162.638h-138.475v-66.225h120.011v-48.973h-120.011v-118.405h-63.014v286.585h201.49v-52.985h-0.001zM573.741 136.952c-6.42 8.29-14.922 14.646-25.487 19.067-10.574 4.414-23.62 6.62-39.133 6.62h-44.957v-180.616h56.194c9.097 0 17.924 1.466 26.493 4.413 8.559 2.941 16.188 7.826 22.878 14.651 6.686 6.821 12.043 15.712 16.055 26.688 4.015 10.973 6.021 24.347 6.021 40.138 0 14.45-1.403 27.497-4.214 39.133-2.809 11.64-7.427 21.605-13.849 29.903zM573.741 136.952" />
<glyph unicode="&#xe63b;" glyph-name="delete" data-tags="delete" d="M982.298 636.902h-938.594c-15.217 0-27.603 12.386-27.603 27.603s12.386 27.603 27.603 27.603h938.594c15.217 0 27.603-12.386 27.603-27.603s-12.386-27.603-27.603-27.603zM679.865 636.902h-333.728c-31.405 0-57.053 25.648-57.053 57.053v71.161c0 31.405 25.648 57.053 57.053 57.053h333.728c31.405 0 57.053-25.648 57.053-57.053v-71.161c0-31.405-25.648-57.053-57.053-57.053zM346.138 766.961c-0.985 0-1.846-0.862-1.846-1.846v-71.161c0-0.985 0.862-1.846 1.846-1.846h333.728c0.985 0 1.846 0.862 1.846 1.846v71.161c0 0.985-0.862 1.846-1.846 1.846h-333.728zM784.277-172.247h-542.536c-44.912 0-81.594 35.218-83.301 80.116l-29.941 755.529c-0.246 7.601 2.571 15.094 7.848 20.617s12.632 8.585 20.371 8.585h712.708c7.601 0 14.971-3.062 20.371-8.585 5.277-5.523 8.094-13.002 7.848-20.617l-30.064-755.529c-1.723-44.912-38.404-80.116-83.301-80.116zM185.905 636.288l28.833-726.217c0.616-14.601 12.386-26.017 26.987-26.017h542.536c14.601 0 26.496 11.416 26.987 26.017l28.833 726.217h-654.194zM390.311-17.66c-16.57 0-30.064 13.494-30.064 30.064v495.67c0 16.57 13.494 30.064 30.064 30.064s30.064-13.494 30.064-30.064v-495.67c0-16.57-13.494-30.064-30.064-30.064zM635.692-17.66c-16.57 0-30.064 13.494-30.064 30.064v495.67c0 16.57 13.494 30.064 30.064 30.064s30.064-13.494 30.064-30.064v-495.67c0-16.57-13.494-30.064-30.064-30.064z" />
<glyph unicode="&#xe63e;" glyph-name="fuzhi" data-tags="fuzhi" d="M887.867 802.74h-536.324c-49.755 0-90.088-40.333-90.088-90.088v0-78.076h60.059v78.076c0 16.585 13.444 30.029 30.029 30.029v0h536.324c16.585 0 30.029-13.444 30.029-30.029v0-610.796c0-0.002 0-0.004 0-0.006 0-16.253-13.176-29.429-29.429-29.429-0.211 0-0.421 0.002-0.632 0.007l0.031-0.001h-154.351v-60.059h154.351c0.001 0 0.001 0 0.002 0 49.543 0 89.746 39.992 90.086 89.455v610.829c0 49.755-40.333 90.088-90.088 90.088v0zM673.458-125.767h-536.324c-49.755 0-90.088 40.333-90.088 90.088v0 610.796c0.34 49.495 40.543 89.487 90.086 89.487 0.001 0 0.001 0 0.002 0h536.324c0.001 0 0.001 0 0.002 0 49.543 0 89.746-39.992 90.086-89.455v-610.829c0-49.755-40.333-90.088-90.088-90.088v0zM137.134 604.547c-0.179 0.004-0.389 0.006-0.601 0.006-16.253 0-29.429-13.176-29.429-29.429 0-0.002 0-0.004 0-0.006v0-610.796c0-16.585 13.444-30.029 30.029-30.029v0h536.324c16.585 0 30.029 13.444 30.029 30.029v0 610.796c-0.337 16.324-13.649 29.429-30.023 29.429-0.002 0-0.004 0-0.006 0v0zM598.384 421.368h-386.177c-16.585 0-30.029 13.444-30.029 30.029v0c0 16.585 13.444 30.029 30.029 30.029v0h386.177c16.585 0 30.029-13.444 30.029-30.029v0c0-16.585-13.444-30.029-30.029-30.029v0zM598.384 239.39h-386.177c-16.585 0-30.029 13.444-30.029 30.029s13.444 30.029 30.029 30.029v0h386.177c16.585 0 30.029-13.444 30.029-30.029s-13.444-30.029-30.029-30.029v0zM598.384 58.013h-386.177c-16.585 0-30.029 13.444-30.029 30.029v0c0 16.585 13.444 30.029 30.029 30.029v0h386.177c16.585 0 30.029-13.444 30.029-30.029v0c0-16.585-13.444-30.029-30.029-30.029v0z" />
<glyph unicode="&#xe640;" glyph-name="edit" data-tags="edit1" horiz-adv-x="1091" d="M1064.092 797.412l-99.001 99.001c-16.714 16.714-39.857 25.714-63 25.714-24.429 0-46.285-9-63-25.714l-567.002-567.002c-1.285-1.285-2.572-2.572-2.572-3.858 0 0 0-1.285-1.285-1.285-1.285-1.285-1.285-2.572-2.572-3.858 0 0 0 0 0-1.285s0-1.285-1.285-2.572l-70.714-258.429c-2.572-9 0-19.286 6.428-25.714 5.143-5.143 11.571-7.715 19.286-7.715 2.572 0 5.143 0 6.428 1.285l259.715 72c1.285 0 1.285 0 2.572 1.285h1.285c1.285 0 2.572 1.285 3.858 2.572 0 0 1.285 0 1.285 1.285 1.285 1.285 2.572 1.285 3.858 2.572l565.716 565.716c34.715 33.429 34.715 91.286 0 126v0zM318.376 106.981l-43.715 43.715 29.572 109.287 123.429-123.429-109.287-29.572zM328.662 311.41l479.573 479.573 56.571-56.571-479.573-479.573-56.571 56.571zM479.090 160.981l-56.571 56.571 479.573 479.573 56.571-56.571-479.573-479.573zM1025.521 707.411l-29.572-29.572-150.429 150.429 30.857 30.857c6.428 6.428 15.428 10.286 25.714 10.286s19.286-3.858 25.714-10.286l99.001-99.001c12.858-15.428 12.858-38.572-1.285-52.714v0zM950.95 445.125c-14.143 0-26.999-11.571-26.999-26.999v-432.001c0-21.857-18.001-39.857-39.857-39.857h-730.287c-21.857 0-39.857 18.001-39.857 39.857v731.573c0 21.857 18.001 39.857 39.857 39.857h432.001c14.143 0 26.999 11.571 26.999 26.999s-11.571 26.999-26.999 26.999h-432.001c-51.428 0-92.571-41.143-92.571-92.571v-730.287c0-51.428 41.143-92.571 92.571-92.571h730.287c51.428 0 92.571 41.143 92.571 92.571v429.429c1.285 14.143-10.286 26.999-25.714 26.999v0z" />
<glyph unicode="&#xe648;" glyph-name="remen" data-tags="remen" d="M453.181 728.661c0.024 0.064 0.048 0.145 0.081 0.145-0.081 0.064-0.097 0-0.081-0.145zM143.007 383.008c-0.015-0.010-0.030-0.021-0.037-0.017 0.006-0.016 0.019-0.006 0.037 0.017zM521.947 193.162c-15.973 0-28.845-5.476-38.619-16.429-9.776-10.953-14.661-27.469-14.661-49.548 0-21.73 5.018-38.203 15.056-49.416 10.035-11.215 22.776-16.82 38.224-16.82 15.446 0 28.121 5.563 38.028 16.691s14.857 27.816 14.857 50.073c0 21.99-4.825 38.397-14.465 49.219-9.644 10.822-22.451 16.233-38.42 16.233zM856.964-0.509c5.924 8.466 11.028 17.861 15.147 28.393 118.454 303.901-290.829 748.055-333.52 793.223 0.1-0.165 0.207-0.363 0.298-0.532-2.636 2.801-4.117 4.341-4.117 4.341 6.23-28.731 10.174-55.491 12.278-80.695-0.115 0.87-0.189 1.708-0.307 2.578 2.992-33.254 2.559-63.593-0.654-91.62-0.496-4.241-1.003-8.491-1.626-12.633-0.098-0.671-0.23-1.333-0.33-1.996-20.563-131.016-105.041-209.091-194.823-290.496-23.48 22.609-37.355 55.211-37.346 103.113 0.083 21.805 3.008 46.76 9.213 75.375l-0.207-0.141c0.074 0.354 0.132 0.688 0.207 1.051 0 0-64.041-41.405-117.311-119.541-0.009 0.008-0.017 0.025-0.017 0.025-0.182-0.264-0.355-0.566-0.548-0.83-3.412-5.037-6.787-10.19-10.083-15.525-0.157-0.239-0.298-0.495-0.447-0.738-1.973-3.045-4.914-7.984-7.758-12.986l-1.116-2.134c0.304 0.677-0.357-0.493-1.015-1.67l-0.982-1.911c-2.892-5.268-5.734-10.635-8.458-16.164-0.133-0.272-0.281-0.54-0.414-0.812-1.785-3.36-4.504-9.174-7.092-15.059l-1.027-2.622c-0.63-1.449-1.226-2.926-1.839-4.383-1.147-2.405-3.142-7.354-5.035-12.353l-0.873-2.627c-0.531-1.424-1.077-2.817-1.592-4.241-1.093-3.067-2.121-6.181-3.148-9.312-0.025-0.066-0.050-0.132-0.066-0.198-1.052-3.181-2.104-6.363-3.073-9.609-0.396-1.309-0.747-2.669-1.126-3.994-0.943-2.821-2.424-8.308-3.784-13.845l-0.527-2.533c-0.015 0.276-0.477-1.644-0.925-3.566l-0.416-2.139c-1.543-6.894-2.967-13.854-4.134-20.994 0-0.050-0.017-0.1-0.017-0.148-0.402-2.019-1.012-6.019-1.549-10.042l-0.184-1.69c-0.032-0.266-0.065-0.532-0.099-0.797-0.317-2.057-0.77-5.941-1.157-9.844l-0.118-1.472c-0.050-0.43-0.083-0.863-0.124-1.301-0.244-2.204-0.562-6.030-0.822-9.872l-0.065-1.205c-0.033-0.548-0.066-1.109-0.091-1.657-0.187-2.753-0.368-6.562-0.49-10.389l-0.014-0.566-0.050-1.955c-0.080-2.872-0.126-6.25-0.126-9.639 0-0.442 0.001-0.887 0.002-1.329v0.068-2.17c0.033-3.63 0.115-7.274 0.256-10.945 0.025-0.772 0.042-1.551 0.083-2.319 0.157-3.671 0.363-7.365 0.623-11.077 0.074-0.796 0.115-1.576 0.173-2.368 0.281-3.745 0.639-7.513 1.027-11.301 0.083-0.787 0.157-1.559 0.248-2.336 0.413-3.861 0.92-7.747 1.457-11.647 0.107-0.737 0.207-1.465 0.306-2.203 0.581-4.001 1.233-8.052 1.939-12.112 0.124-0.648 0.214-1.292 0.338-1.939 1.167-6.775 2.038-11.107 2.98-15.412l-0.476 2.605c0.099-0.479 0.19-0.961 0.281-1.441 1.591-7.672 2.694-12.311 3.867-16.921l-0.678 3.135c0.050-0.231 0.1-0.454 0.157-0.68 4.889-19.684 11.267-39.957 19.403-60.834 4.109-10.529 9.213-19.923 15.146-28.393 69.427-121.753 265.799-201.568 265.799-201.568v0.008c-0.679 0.277-56.984 23.254-119.772 63.166 62.788-39.913 119.094-62.885 119.772-63.159l0.033-0.016v0.033c0.041-0.018 0.083-0.033 0.083-0.033 3.721 34.149 18.549 57.445 40.597 73.932-0.017 0.018-0.042 0.018-0.058 0.033 0.124 0.083 0.256 0.166 0.38 0.256 4.448 3.305 9.188 6.338 14.192 9.131 0.264 0.149 0.531 0.29 0.796 0.438 5.013 2.759 10.281 5.276 15.79 7.579 0.165 0.066 0.314 0.141 0.479 0.207 39.203-16.256 66.982-42.932 72.277-91.579 0 0 0.024 0.016 0.033 0.016v-0.016s42.865 17.431 95.613 48.399c-0.066-0.066-0.132-0.141-0.198-0.215 60.237 35.332 133.473 88.38 170.547 153.382zM396.537 31.099h-38.75v83.913h-75.926v-83.913h-38.75v191.909h38.75v-75.535h75.926v75.535h38.75v-191.909zM589.626 54.074c-16.844-17.499-39.359-26.249-67.55-26.249-28.538 0-51.23 8.703-68.070 26.114-16.843 17.412-25.267 41.388-25.267 71.936 0 19.546 2.924 35.952 8.773 49.219 4.362 9.776 10.319 18.545 17.867 26.314 7.547 7.767 15.816 13.525 24.806 17.28 11.956 5.060 25.744 7.591 41.366 7.591 28.276 0 50.901-8.774 67.876-26.313 16.973-17.541 25.461-41.936 25.461-73.178 0.001-30.98-8.422-55.22-25.265-72.716zM631.385 190.544v32.465h152.508v-32.465h-56.813v-159.446h-38.749v159.446h-56.946z" />
<glyph unicode="&#xe672;" glyph-name="up" data-tags="up" d="M880.076 257.363l-368.679 340.998-368.679-340.998c-22.566-14.542-52.653-14.542-67.698 0-15.045 21.763-15.045 50.85 0 65.292l421.434 384.425c0 7.221 7.521 7.221 15.045 7.221s7.521 0 15.045-7.221l421.434-384.425c22.566-21.763 15.045-50.749 0-65.292-22.766-14.542-52.856-14.542-67.898 0zM496.253 373.502c0 7.221 7.521 7.221 15.045 7.221s15.045 0 15.045-7.221l421.434-384.425c22.566-21.763 15.045-50.749 0-65.292-22.566-14.442-52.653-14.442-67.698 0l-368.779 340.898-368.679-348.219c-22.566-14.542-52.653-14.542-67.698 0-15.045 21.763-15.045 50.85 0 65.292l421.333 391.747zM496.253 373.502" />
<glyph unicode="&#xe679;" glyph-name="down" data-tags="down" d="M145.826 362.47l368.679-340.998 368.679 340.998c22.566 14.542 52.653 14.542 67.698 0 15.045-21.763 15.045-50.85 0-65.292l-421.434-384.425c0-7.221-7.521-7.221-15.045-7.221s-7.521 0-15.045 7.221l-421.434 384.425c-22.566 21.763-15.045 50.749 0 65.292 22.666 14.542 52.754 14.542 67.898 0zM529.55 246.33c0-7.221-7.521-7.221-15.045-7.221s-15.045 0-15.045 7.221l-421.434 384.425c-22.566 21.763-15.045 50.749 0 65.292 22.566 14.442 52.653 14.442 67.698 0l368.779-340.898 368.679 348.219c22.566 14.542 52.653 14.542 67.698 0 15.045-21.763 15.045-50.85 0-65.292l-421.333-391.747zM529.55 246.33" />
<glyph unicode="&#xe6a1;" glyph-name="title" data-tags="title" d="M788.594 70.716v481.409q0 13.971-10.209 24.179t-24.179 10.209h-68.772q-13.971 0-24.179-10.209t-10.209-24.179v-171.933h-275.091v171.933q0 13.971-10.209 24.179t-24.179 10.209h-68.772q-13.971 0-24.179-10.209t-10.209-24.179v-481.409q0-13.971 10.209-24.179t24.179-10.209h68.772q13.971 0 24.179 10.209t10.209 24.179v171.933h275.091v-171.933q0-13.971 10.209-24.179t24.179-10.209h68.772q13.971 0 24.179 10.209t10.209 24.179zM926.14 569.318v-515.796q0-63.936-45.4-109.339t-109.339-45.4h-515.796q-63.936 0-109.339 45.4t-45.4 109.339v515.796q0 63.936 45.4 109.339t109.339 45.4h515.796q63.936 0 109.339-45.4t45.4-109.339z" />
<glyph unicode="&#xe6dd;" glyph-name="tupian" data-tags="tupian" d="M241.701 382.46c30.658 0 51.091 10.219 71.527 30.653s30.659 45.981 30.659 71.528-10.223 51.091-30.659 71.528c-20.434 20.441-40.87 30.658-71.527 30.658-30.653 0-51.091-10.219-71.528-30.658-20.435-20.435-30.653-40.87-30.653-71.528 0-30.653 10.218-51.091 30.653-71.528 20.435-20.434 45.979-30.653 71.528-30.653v0zM885.451 280.274l-219.695 219.695-270.782-270.784-86.852 86.856-168.6-168.6v-102.18h745.929v235.017zM972.302 704.334h-919.636c-25.548 0-51.091-25.546-51.091-51.091v-679.509c0-25.546 25.546-51.091 51.091-51.091h919.635c25.548 0 51.091 25.548 51.091 51.091v679.507c0.001 30.658-25.545 51.094-51.089 51.094v0zM972.302-21.162h-919.636v674.403h919.635v-674.403h0.001z" />
<glyph unicode="&#xe900;" glyph-name="sign-out" data-tags="sign-out" horiz-adv-x="896" d="M365.714 54.857c0-16 7.429-54.857-18.286-54.857h-182.857c-90.857 0-164.571 73.714-164.571 164.571v402.286c0 90.857 73.714 164.571 164.571 164.571h182.857c9.714 0 18.286-8.571 18.286-18.286 0-16 7.429-54.857-18.286-54.857h-182.857c-50.286 0-91.429-41.143-91.429-91.429v-402.286c0-50.286 41.143-91.429 91.429-91.429h164.571c14.286 0 36.571 2.857 36.571-18.286zM896 365.714c0-9.714-4-18.857-10.857-25.714l-310.857-310.857c-6.857-6.857-16-10.857-25.714-10.857-20 0-36.571 16.571-36.571 36.571v164.571h-256c-20 0-36.571 16.571-36.571 36.571v219.429c0 20 16.571 36.571 36.571 36.571h256v164.571c0 20 16.571 36.571 36.571 36.571 9.714 0 18.857-4 25.714-10.857l310.857-310.857c6.857-6.857 10.857-16 10.857-25.714z" />
<glyph unicode="&#xe901;" glyph-name="github" data-tags="github" horiz-adv-x="878" d="M438.857 804.571c242.286 0 438.857-196.571 438.857-438.857 0-193.714-125.714-358.286-300-416.571-22.286-4-30.286 9.714-30.286 21.143 0 14.286 0.571 61.714 0.571 120.571 0 41.143-13.714 67.429-29.714 81.143 97.714 10.857 200.571 48 200.571 216.571 0 48-17.143 86.857-45.143 117.714 4.571 11.429 19.429 56-4.571 116.571-36.571 11.429-120.571-45.143-120.571-45.143-34.857 9.714-72.571 14.857-109.714 14.857s-74.857-5.143-109.714-14.857c0 0-84 56.571-120.571 45.143-24-60.571-9.143-105.143-4.571-116.571-28-30.857-45.143-69.714-45.143-117.714 0-168 102.286-205.714 200-216.571-12.571-11.429-24-30.857-28-58.857-25.143-11.429-89.143-30.857-127.429 36.571-24 41.714-67.429 45.143-67.429 45.143-42.857 0.571-2.857-26.857-2.857-26.857 28.571-13.143 48.571-64 48.571-64 25.714-78.286 148-52 148-52 0-36.571 0.571-70.857 0.571-81.714 0-11.429-8-25.143-30.286-21.143-174.286 58.286-300 222.857-300 416.571 0 242.286 196.571 438.857 438.857 438.857zM166.286 174.285c1.143 2.286-0.571 5.143-4 6.857-3.429 1.143-6.286 0.571-7.429-1.143-1.143-2.286 0.571-5.143 4-6.857 2.857-1.714 6.286-1.143 7.429 1.143zM184 154.857c2.286 1.714 1.714 5.714-1.143 9.143-2.857 2.857-6.857 4-9.143 1.714-2.286-1.714-1.714-5.714 1.143-9.143 2.857-2.857 6.857-4 9.143-1.714zM201.143 129.143c2.857 2.286 2.857 6.857 0 10.857-2.286 4-6.857 5.714-9.714 3.429-2.857-1.714-2.857-6.286 0-10.286s7.429-5.714 9.714-4zM225.143 105.143c2.286 2.286 1.143 7.429-2.286 10.857-4 4-9.143 4.571-11.429 1.714-2.857-2.286-1.714-7.429 2.286-10.857 4-4 9.143-4.571 11.429-1.714zM257.714 90.857c1.143 3.429-2.286 7.429-7.429 9.143-4.571 1.143-9.714-0.571-10.857-4s2.286-7.429 7.429-8.571c4.571-1.714 9.714 0 10.857 3.429zM293.714 88c0 4-4.571 6.857-9.714 6.286-5.143 0-9.143-2.857-9.143-6.286 0-4 4-6.857 9.714-6.286 5.143 0 9.143 2.857 9.143 6.286zM326.857 93.714c-0.571 3.429-5.143 5.714-10.286 5.143-5.143-1.143-8.571-4.571-8-8.571 0.571-3.429 5.143-5.714 10.286-4.571s8.571 4.571 8 8z" />
<glyph unicode="&#xe904;" glyph-name="chevron-small-down" data-tags="chevron-small-down" d="M689.019 427.78c13.917 13.761 36.408 13.761 50.221 0 13.866-13.761 13.968-35.996 0-49.759l-200.678-196.672c-13.866-13.761-36.303-13.761-50.272 0l-200.678 196.672c-13.866 13.709-13.866 35.996 0 49.759 13.917 13.761 36.408 13.761 50.221 0l175.669-161.291 175.515 161.291z" />
<glyph unicode="&#xe905;" glyph-name="chevron-small-up" data-tags="chevron-small-up" d="M337.987 207.899c-13.917-13.761-36.408-13.761-50.221 0s-13.968 35.996 0 49.759l200.678 196.672c13.866 13.761 36.303 13.761 50.272 0l200.678-196.672c13.866-13.709 13.866-35.996 0-49.759-13.917-13.761-36.408-13.761-50.272 0l-175.618 161.291-175.515-161.291z" />
<glyph unicode="&#xe906;" glyph-name="plus" data-tags="plus" d="M481.409 343.515v353.033c0 17.724 14.369 32.093 32.093 32.093s32.093-14.369 32.093-32.093v0-353.033h353.033c17.724 0 32.093-14.369 32.093-32.093s-14.369-32.093-32.093-32.093v0h-353.033v-353.033c0-17.724-14.369-32.093-32.093-32.093s-32.093 14.369-32.093 32.093v0 353.033h-353.033c-17.724 0-32.093 14.369-32.093 32.093s14.369 32.093 32.093 32.093v0z" />
<glyph unicode="&#xe907;" glyph-name="circle-with-minus" data-tags="circle-with-minus" d="M513.502 749.182c-238.214 0-431.342-193.128-431.342-431.342s193.128-431.342 431.342-431.342 431.342 193.128 431.342 431.342c0 238.214-193.128 431.342-431.342 431.342zM770.254 266.489h-513.502v102.7h513.502v-102.7z" />
<glyph unicode="&#xedd5;" glyph-name="word" data-tags="word" d="M978.865 712.595h-401.174v48.141c0 6.418-3.209 9.627-6.418 12.839s-9.627 3.209-12.839 3.209l-513.502-128.375c-6.418-3.209-12.839-9.627-12.839-16.048v-673.973c0-6.418 6.418-12.839 12.839-16.048l513.502-96.282h3.209c3.209 0 6.418 0 9.627 3.209s6.418 6.418 6.418 12.839v48.141h401.174c9.627 0 16.048 6.418 16.048 16.048v770.254c0 9.627-6.418 16.048-16.048 16.048zM481.409 433.378l-96.282-288.846c-3.209-6.418-9.627-9.627-16.048-9.627s-12.839 6.418-16.048 12.839l-48.141 176.516c-3.209 12.839-25.675 12.839-32.093 0l-48.141-176.516c-3.209-6.418-6.418-12.839-16.048-12.839s-12.839 6.418-12.839 9.627l-96.282 288.846c-3.209 9.627 3.209 16.048 9.627 19.257h6.418c6.418 0 12.839-3.209 16.048-9.627l64.189-189.355c3.209-6.418 9.627-9.627 16.048-9.627s12.839 6.418 16.048 12.839l51.35 186.145c3.209 12.839 25.675 12.839 32.093 0l51.35-186.145c3.209-6.418 6.418-12.839 16.048-12.839 6.418 0 12.839 3.209 16.048 9.627l64.189 189.355c3.209 9.627 12.839 12.839 19.257 9.627 0 0 6.418-9.627 3.209-19.257zM962.817-57.659h-385.127v96.282h304.892c9.627 0 16.048 6.418 16.048 16.048s-6.418 16.048-16.048 16.048h-304.892v96.282h304.892c9.627 0 16.048 6.418 16.048 16.048s-6.418 16.048-16.048 16.048h-304.892v96.282h304.892c9.627 0 16.048 6.418 16.048 16.048s-6.418 16.048-16.048 16.048h-304.892v96.282h304.892c9.627 0 16.048 6.418 16.048 16.048s-6.418 16.048-16.048 16.048h-304.892v96.282h304.892c9.627 0 16.048 6.418 16.048 16.048s-6.418 16.048-16.048 16.048h-304.892v96.282h385.127v-738.16z" />
</font>
</defs>
</svg>
